<?xml version="1.0" encoding="UTF-8" standalone="no"?>
<!-- Created with Inkscape (http://www.inkscape.org/) -->

<svg
   width="52.05611mm"
   height="38.167881mm"
   viewBox="0 0 52.05611 38.167881"
   version="1.1"
   id="svg5"
   inkscape:version="1.1.1 (3bf5ae0d25, 2021-09-20)"
   sodipodi:docname="cart.svg"
   xmlns:inkscape="http://www.inkscape.org/namespaces/inkscape"
   xmlns:sodipodi="http://sodipodi.sourceforge.net/DTD/sodipodi-0.dtd"
   xmlns:xlink="http://www.w3.org/1999/xlink"
   xmlns="http://www.w3.org/2000/svg"
   xmlns:svg="http://www.w3.org/2000/svg">
  <sodipodi:namedview
     id="namedview7"
     pagecolor="#505050"
     bordercolor="#eeeeee"
     borderopacity="1"
     inkscape:pageshadow="0"
     inkscape:pageopacity="0"
     inkscape:pagecheckerboard="0"
     inkscape:document-units="mm"
     showgrid="false"
     inkscape:zoom="0.80378836"
     inkscape:cx="116.94621"
     inkscape:cy="312.27126"
     inkscape:window-width="1920"
     inkscape:window-height="1017"
     inkscape:window-x="-8"
     inkscape:window-y="-8"
     inkscape:window-maximized="1"
     inkscape:current-layer="layer1"
     fit-margin-top="0"
     fit-margin-left="0"
     fit-margin-right="0"
     fit-margin-bottom="0" />
  <defs
     id="defs2">
    <linearGradient
       inkscape:collect="always"
       id="linearGradient16834">
      <stop
         style="stop-color:#00deff;stop-opacity:1"
         offset="0"
         id="stop16830" />
      <stop
         style="stop-color:#0081fc;stop-opacity:0.98823529"
         offset="0.26966047"
         id="stop20864" />
      <stop
         style="stop-color:#00f5fb;stop-opacity:0.98431373"
         offset="0.63059157"
         id="stop21378" />
      <stop
         style="stop-color:#0084fc;stop-opacity:0.98823529"
         offset="1"
         id="stop16832" />
    </linearGradient>
    <linearGradient
       inkscape:collect="always"
       xlink:href="#linearGradient16834"
       id="linearGradient16996"
       x1="45.89323"
       y1="39.077747"
       x2="90.384682"
       y2="39.659641"
       gradientUnits="userSpaceOnUse" />
  </defs>
  <g
     inkscape:label="Layer 1"
     inkscape:groupmode="layer"
     id="layer1"
     transform="translate(-38.328575,-20.575701)">
    <path
       style="fill:url(#linearGradient16996);fill-opacity:1;stroke-width:0.0708422"
       d="m 57.726458,58.715707 c -1.319869,-0.255517 -2.39083,-1.161282 -2.844176,-2.405466 -0.216788,-0.594965 -0.216788,-1.731396 0,-2.326353 0.418147,-1.147584 1.377255,-2.022884 2.560807,-2.33703 l 0.389632,-0.103418 -0.623387,-0.005 c -0.410523,-0.0033 -0.694347,-0.04133 -0.831196,-0.11212 -0.42066,-0.21753 -0.422735,-0.234666 -0.422735,-3.491986 v -2.968916 l -1.386117,-3.676072 c -0.762363,-2.021838 -2.369601,-6.290148 -3.571637,-9.485132 -1.202037,-3.194978 -2.503814,-6.653847 -2.892837,-7.686371 l -0.707315,-1.877317 -4.275238,-0.03542 c -3.289715,-0.02725 -4.311812,-0.05632 -4.433899,-0.126074 -0.339219,-0.193816 -0.462977,-0.698087 -0.265192,-1.080561 0.224956,-0.435018 0.07617,-0.422735 5.120863,-0.422735 h 4.597782 l 0.240714,0.1613 c 0.22508,0.150825 0.309902,0.345203 1.306094,2.993081 l 1.065381,2.831782 19.549687,0.03542 c 15.105955,0.02737 19.583635,0.0549 19.699045,0.121096 0.22432,0.128674 0.38195,0.411161 0.38195,0.684484 0,0.176511 -0.55847,1.375132 -2.02285,4.341573 -1.11258,2.25376 -2.69818,5.468541 -3.52358,7.143961 -2.77443,5.631617 -3.18858,6.433336 -3.40261,6.586681 -0.19888,0.142501 -0.26807,0.143321 -12.025445,0.143321 H 57.584768 l 3e-6,2.142979 2e-6,2.142978 h 11.288755 c 7.954691,0 11.354076,0.02276 11.509946,0.07715 0.25437,0.08868 0.50837,0.45428 0.50837,0.731752 0,0.499496 -0.38124,0.814111 -1.00598,0.830159 -0.20649,0.005 -0.29575,0.02301 -0.19833,0.03924 1.43701,0.240281 2.67542,1.425676 2.96849,2.841404 0.55996,2.705027 -2.08818,5.02308 -4.708493,4.121566 -1.250535,-0.430249 -2.184438,-1.583908 -2.380272,-2.940354 -0.251969,-1.745277 0.91199,-3.473829 2.644834,-3.927749 0.518656,-0.135866 0.511134,-0.135967 -9.469679,-0.134829 -9.564491,8.37e-4 -9.970686,0.0067 -9.563536,0.122973 0.650918,0.186479 1.069952,0.416426 1.522663,0.835555 0.702752,0.650624 1.082062,1.400073 1.176845,2.325241 0.162499,1.586109 -0.879751,3.1886 -2.422015,3.723908 -0.410792,0.142576 -1.372069,0.234256 -1.729913,0.164975 z m 1.195893,-1.701995 c 0.464118,-0.149898 0.843584,-0.476988 1.108722,-0.955708 0.181377,-0.327475 0.210035,-0.452614 0.208628,-0.910943 -0.0013,-0.407173 -0.0377,-0.599451 -0.155997,-0.822938 -0.24014,-0.453652 -0.502036,-0.725954 -0.8965,-0.932105 -0.299174,-0.156349 -0.455743,-0.189575 -0.894009,-0.189692 -0.810881,-2.09e-4 -1.381511,0.343565 -1.758165,1.05921 -0.256305,0.486979 -0.265787,1.264566 -0.02116,1.73563 0.482994,0.930088 1.433717,1.331362 2.408485,1.016546 z m 20.833643,0.005 c 0.49532,-0.147095 1.05961,-0.695029 1.22963,-1.193972 0.26036,-0.764142 0.0909,-1.494631 -0.47819,-2.061524 -0.96487,-0.961097 -2.505098,-0.716951 -3.144811,0.498508 -0.256304,0.486987 -0.265784,1.264575 -0.02117,1.735639 0.483012,0.930121 1.406415,1.320727 2.414531,1.021349 z M 62.776997,43.971916 c 0.01598,-0.0292 -0.216284,-0.961683 -0.516197,-2.072134 l -0.54529,-2.019001 -2.978844,-0.01849 -2.978845,-0.01849 0.787822,2.090608 0.787821,2.0906 h 2.707212 c 1.488966,0 2.720306,-0.02393 2.736321,-0.05313 z m 5.984193,-2.05442 0.01874,-2.072133 h -2.697848 c -2.536052,0 -2.695656,0.0075 -2.661342,0.123976 0.02008,0.06819 0.261709,0.968761 0.536972,2.001288 0.275264,1.032528 0.515201,1.917642 0.533199,1.966925 0.0256,0.07012 0.492124,0.08553 2.142083,0.07087 l 2.109376,-0.01874 z m 6.488894,0.07087 c 0.30029,-1.12019 0.544896,-2.06062 0.543558,-2.089847 -0.0017,-0.0292 -1.229776,-0.05313 -2.729861,-0.05313 h -2.727418 v 2.042613 c 0,1.123446 0.02125,2.063875 0.04719,2.089847 0.02602,0.02594 1.008714,0.04719 2.183869,0.04719 h 2.136635 z m 6.25532,-0.01774 c 0.55299,-1.11045 1.00777,-2.042906 1.01062,-2.072133 0.003,-0.0292 -1.12529,-0.05313 -2.50698,-0.05313 h -2.512162 l -0.06869,0.265658 c -0.03774,0.146116 -0.2781,1.048517 -0.534044,2.005346 -0.255944,0.956829 -0.465358,1.778202 -0.465358,1.825276 0,0.06535 0.481657,0.08116 2.035594,0.06677 l 2.03559,-0.01883 z M 61.266912,38.198282 c -8.36e-4,-0.0097 -0.251112,-0.942203 -0.556014,-2.072133 l -0.554367,-2.05442 -3.26946,-0.01841 c -1.798203,-0.01012 -3.269459,0.0089 -3.269459,0.04225 0,0.07514 1.40183,3.818339 1.495569,3.993489 0.0637,0.119024 0.258169,0.126956 3.111664,0.126956 1.674046,0 3.042979,-0.0084 3.042067,-0.01774 z m 7.494278,-2.089846 0.01874,-2.072134 h -3.477109 c -3.278213,0 -3.475026,0.0067 -3.440612,0.123977 0.02008,0.06819 0.261709,0.968769 0.536973,2.001288 0.275263,1.032528 0.515159,1.917525 0.533098,1.966674 0.02569,0.07037 0.647629,0.0854 2.921353,0.07087 l 2.888737,-0.01849 z m 8.046245,0.07087 c 0.299679,-1.120191 0.544302,-2.06062 0.543591,-2.089847 -7.12e-4,-0.0292 -1.579298,-0.05313 -3.507976,-0.05313 h -3.506687 v 2.042623 c 0,1.123436 0.02125,2.063866 0.04719,2.089838 0.02602,0.02602 1.359366,0.04719 2.963096,0.04719 h 2.915864 z m 7.572199,-0.03539 1.0189,-2.072134 -3.14994,-0.01841 c -1.73247,-0.01012 -3.16117,-0.0075 -3.17489,0.0067 -0.03648,0.03648 -1.08427,3.963126 -1.085417,4.067674 -7.61e-4,0.06928 0.583076,0.08855 2.685737,0.08855 h 2.68669 l 1.01892,-2.072133 z m -24.70798,-3.896325 c -0.0226,-0.08766 -0.271994,-1.020127 -0.554219,-2.072133 L 58.6043,28.26272 55.007583,28.24435 c -3.025632,-0.01545 -3.593062,-0.0028 -3.573687,0.07922 0.01267,0.05368 0.35776,0.99384 0.766873,2.089261 l 0.743843,1.991674 3.384062,8.37e-4 3.384063,8.36e-4 -0.04108,-0.159394 z m 9.065255,0.04192 c 0.05439,-0.14169 0.04836,-3.818823 -0.0067,-3.961728 -0.03272,-0.08521 -0.679298,-0.1005 -4.250873,-0.1005 -3.978379,0 -4.210273,0.0069 -4.175828,0.123974 0.02006,0.06818 0.262022,0.968766 0.537698,2.001291 0.275675,1.032521 0.515447,1.917167 0.532817,1.965872 0.02468,0.06928 0.824268,0.08855 3.674608,0.08855 3.327261,0 3.646921,-0.01021 3.688088,-0.117459 z m 9.628529,-1.919252 c 0.299278,-1.120192 0.54385,-2.060622 0.543482,-2.089844 -3.6e-4,-0.02923 -1.929339,-0.05313 -4.286609,-0.05313 h -4.285948 v 2.089844 2.089843 h 3.742458 3.742466 z m 8.878996,-0.01771 c 0.5522,-1.110451 1.00648,-2.042911 1.0095,-2.072133 0.003,-0.02923 -1.71475,-0.05313 -3.81725,-0.05313 h -3.82275 l -0.0697,0.265658 c -0.0383,0.146112 -0.27865,1.049431 -0.53404,2.007375 -0.25539,0.957943 -0.46436,1.77914 -0.46436,1.824883 0,0.06275 0.82195,0.07865 3.34729,0.06476 l 3.3473,-0.01841 z"
       id="path16542" />
  </g>
</svg>
