<?xml version="1.0" encoding="UTF-8" standalone="no"?>
<!-- Created with Inkscape (http://www.inkscape.org/) -->

<svg
   width="97.054581mm"
   height="121.98427mm"
   viewBox="0 0 97.054581 121.98427"
   version="1.1"
   id="svg5"
   inkscape:version="1.1.1 (3bf5ae0d25, 2021-09-20)"
   sodipodi:docname="cat_dogs.svg"
   xmlns:inkscape="http://www.inkscape.org/namespaces/inkscape"
   xmlns:sodipodi="http://sodipodi.sourceforge.net/DTD/sodipodi-0.dtd"
   xmlns="http://www.w3.org/2000/svg"
   xmlns:svg="http://www.w3.org/2000/svg">
  <sodipodi:namedview
     id="namedview7"
     pagecolor="#505050"
     bordercolor="#eeeeee"
     borderopacity="1"
     inkscape:pageshadow="0"
     inkscape:pageopacity="0"
     inkscape:pagecheckerboard="0"
     inkscape:document-units="mm"
     showgrid="false"
     fit-margin-top="0"
     fit-margin-left="0"
     fit-margin-right="0"
     fit-margin-bottom="0"
     inkscape:zoom="1.1367284"
     inkscape:cx="-6.1580234"
     inkscape:cy="313.17947"
     inkscape:window-width="1920"
     inkscape:window-height="1017"
     inkscape:window-x="-8"
     inkscape:window-y="-8"
     inkscape:window-maximized="1"
     inkscape:current-layer="layer1" />
  <defs
     id="defs2" />
  <g
     inkscape:label="Layer 1"
     inkscape:groupmode="layer"
     id="layer1"
     transform="translate(-56.899393,-64.716621)">
    <path
       style="fill:#000000;stroke-width:1.15547"
       d="m 67.682548,181.21242 c -3.073742,-7.96651 -2.947232,-23.7051 0.23452,-29.17559 1.364132,-2.3454 8.13974,-8.41234 16.130462,-14.44336 7.578068,-5.71957 15.397473,-12.52957 17.37645,-15.13334 3.32979,-4.38103 3.74517,-5.98999 5.56941,-21.57261 2.19189,-18.723075 4.08205,-26.338111 7.95712,-32.057481 3.76168,-5.552025 5.15635,-5.496049 6.04976,0.242809 1.41812,9.1094 1.33353,9.013988 7.99187,9.013988 4.98687,0 6.56217,0.51772 8.78956,2.888672 2.29239,2.44013 3.75899,2.888672 9.44517,2.888672 6.21167,0 6.73106,0.200727 6.72708,2.599802 -0.0102,6.09244 -6.08882,12.07965 -14.25523,14.040718 -2.54802,0.61187 -3.08892,1.22994 -2.41713,2.76196 5.40305,12.32155 6.32196,29.43259 2.70528,50.37501 -2.64834,15.33524 -2.44382,25.5598 0.60432,30.21186 1.86566,2.84736 1.86566,2.84736 -7.37809,2.84736 -8.63976,0 -9.37023,-0.19304 -11.17951,-2.95435 -3.43803,-5.24709 -3.39837,-13.38875 0.11557,-23.7293 1.73545,-5.10691 3.20367,-10.98986 3.26273,-13.07322 0.0816,-2.87742 0.88678,-4.23525 3.34992,-5.64889 4.35533,-2.49962 4.09225,-4.44433 -1.37932,-10.19615 -0.65019,-0.68349 -0.99126,-1.85964 -1.83279,-2.00644 -6.69469,-1.16778 -2.8597,-3.41377 -2.78909,-3.81956 0.0912,-0.52419 -0.72608,-0.9674 -1.6135,-0.9674 -2.39536,0 -7.82005,6.72823 -11.05626,13.71304 -2.48339,5.35999 -3.72366,6.58941 -9.68166,9.597 -12.895414,6.50959 -17.468965,15.55762 -14.672639,29.02746 1.3463,6.48509 1.432875,6.59141 5.367702,6.59141 8.927747,0 17.070527,-6.50813 16.402647,-13.10984 -0.18981,-1.87627 -1.29002,-3.9838 -2.4449,-4.6834 -1.72997,-1.04798 -2.5516,-0.71239 -4.66528,1.90554 -2.509914,3.1087 -5.367358,4.23239 -5.367358,2.11072 0,-0.58674 1.346123,-2.66659 2.991386,-4.62187 8.183092,-9.72505 17.749962,2.23153 10.846052,13.55528 -3.84351,6.3041 -9.868539,8.25501 -25.585425,8.2846 -13.48119,0.0254 -13.48119,0.0254 -15.598827,-5.4631 z M 133.15983,86.592962 c 0,-2.17589 -3.28614,-3.371233 -4.88167,-1.77571 -0.90958,0.90959 -0.86449,1.73638 0.16215,2.97341 1.65062,1.98887 4.71952,1.21006 4.71952,-1.1977 z M 58.714632,145.59922 c -4.048588,-4.04859 -0.837861,-12.04989 4.835327,-12.04989 3.297866,0 7.460082,5.44664 6.540394,8.55871 -1.503646,5.08808 -7.835571,7.03133 -11.375721,3.49118 z M 123.91608,134.7048 c 0,-0.63551 0.51996,-1.15547 1.15547,-1.15547 0.63551,0 1.15547,0.51996 1.15547,1.15547 0,0.63551 -0.51996,1.15547 -1.15547,1.15547 -0.63551,0 -1.15547,-0.51996 -1.15547,-1.15547 z"
       id="path926"
       sodipodi:nodetypes="sssssssssscscssssssssssssssssssssssssssssssssssss" />
  </g>
</svg>
