<?xml version="1.0" encoding="UTF-8" standalone="no"?>
<!-- Created with Inkscape (http://www.inkscape.org/) -->

<svg
   width="42.340851mm"
   height="40.956593mm"
   viewBox="0 0 42.340851 40.956593"
   version="1.1"
   id="svg5"
   inkscape:version="1.1.1 (3bf5ae0d25, 2021-09-20)"
   sodipodi:docname="hospital.svg"
   xmlns:inkscape="http://www.inkscape.org/namespaces/inkscape"
   xmlns:sodipodi="http://sodipodi.sourceforge.net/DTD/sodipodi-0.dtd"
   xmlns:xlink="http://www.w3.org/1999/xlink"
   xmlns="http://www.w3.org/2000/svg"
   xmlns:svg="http://www.w3.org/2000/svg">
  <sodipodi:namedview
     id="namedview7"
     pagecolor="#505050"
     bordercolor="#eeeeee"
     borderopacity="1"
     inkscape:pageshadow="0"
     inkscape:pageopacity="0"
     inkscape:pagecheckerboard="0"
     inkscape:document-units="mm"
     showgrid="false"
     inkscape:zoom="0.80378836"
     inkscape:cx="197.81327"
     inkscape:cy="160.49001"
     inkscape:window-width="1920"
     inkscape:window-height="1017"
     inkscape:window-x="-8"
     inkscape:window-y="-8"
     inkscape:window-maximized="1"
     inkscape:current-layer="layer1"
     fit-margin-top="0"
     fit-margin-left="0"
     fit-margin-right="0"
     fit-margin-bottom="0" />
  <defs
     id="defs2">
    <linearGradient
       inkscape:collect="always"
       id="linearGradient16834">
      <stop
         style="stop-color:#00deff;stop-opacity:1"
         offset="0"
         id="stop16830" />
      <stop
         style="stop-color:#0081fc;stop-opacity:0.98823529"
         offset="0.26966047"
         id="stop20864" />
      <stop
         style="stop-color:#00f5fb;stop-opacity:0.98431373"
         offset="0.63059157"
         id="stop21378" />
      <stop
         style="stop-color:#0084fc;stop-opacity:0.98823529"
         offset="1"
         id="stop16832" />
    </linearGradient>
    <linearGradient
       inkscape:collect="always"
       xlink:href="#linearGradient16834"
       id="linearGradient26354"
       gradientUnits="userSpaceOnUse"
       x1="39.568966"
       y1="90.310349"
       x2="94.034485"
       y2="91.241386"
       gradientTransform="translate(-29.44091,-4.6135402)" />
  </defs>
  <g
     inkscape:label="Layer 1"
     inkscape:groupmode="layer"
     id="layer1"
     transform="translate(-17.090324,-60.828608)">
    <path
       style="fill:url(#linearGradient26354);fill-opacity:1;stroke-width:0.0882994"
       d="m 17.338074,101.57201 -0.24775,-0.21311 v -9.087348 -9.087348 l 0.26802,-0.433499 c 0.1574,-0.254563 0.41253,-0.51534 0.6181,-0.631775 0.34558,-0.195735 0.39281,-0.198297 3.68066,-0.199732 l 3.33059,-0.0014 0.0248,-6.512084 0.0248,-6.512086 0.21121,-0.529796 c 0.47359,-1.187907 1.35492,-2.06775 2.52607,-2.521819 0.4991,-0.193508 0.67175,-0.207456 2.9801,-0.240764 l 2.45031,-0.03536 v -0.248222 c 0,-0.341898 0.37173,-1.410223 0.6678,-1.919185 0.13467,-0.231524 0.52626,-0.702579 0.8702,-1.046784 1.67825,-1.679568 4.29052,-2.007248 6.3553,-0.797205 0.60472,0.354391 1.46698,1.200376 1.81862,1.784311 0.35973,0.597336 0.70188,1.546727 0.70514,1.956583 l 0.002,0.286973 2.00881,0.0016 c 1.41326,0.0011 2.18805,0.03952 2.61337,0.129625 1.68735,0.357507 3.01357,1.798106 3.23675,3.515899 0.0455,0.349508 0.0837,3.346013 0.0853,6.658904 l 0.002,6.023435 3.39318,0.02507 c 3.81014,0.02816 3.55231,-0.01677 4.15131,0.723288 l 0.27001,0.333585 0.0232,9.177771 0.0232,9.177773 -0.21794,0.21794 -0.21795,0.21795 h -20.70437 -20.70532 l -0.24775,-0.21316 z m 2.24755,-5.498521 0.0229,-4.342989 0.23183,-0.182356 c 0.2157,-0.169673 0.34797,-0.182356 1.90162,-0.182356 1.65513,0 1.6717,0.0019 1.88654,0.216734 l 0.21673,0.216735 v 4.330692 4.330681 h 0.57395 0.57395 v -8.503235 c 0,-6.495898 -0.025,-8.528253 -0.106,-8.609197 -0.15184,-0.151837 -6.17041,-0.151837 -6.32226,0 -0.081,0.08094 -0.106,2.114236 -0.106,8.61341 v 8.507452 l 0.55187,-0.0263 0.55188,-0.0263 z m 2.93512,0.50197 V 92.69028 h -0.79469 -0.7947 v 3.885179 3.885171 h 0.7947 0.79469 z m 11.30234,-1.549257 v -5.434431 l 0.21673,-0.216735 0.21674,-0.216734 3.91125,0.0012 c 2.15121,7.07e-4 3.99378,0.02336 4.09462,0.05044 0.10087,0.02708 0.24986,0.161806 0.33112,0.299391 0.13379,0.226478 0.14778,0.756683 0.14778,5.601682 v 5.351525 l 3.70911,-0.023 3.70912,-0.023 -7e-5,-15.664209 -10e-5,-15.664213 -0.20805,-0.454467 c -0.30186,-0.659369 -0.70049,-1.066225 -1.36558,-1.393814 l -0.58631,-0.288787 h -2.15341 -2.15339 l -0.25269,0.743954 c -0.57123,1.681786 -1.73127,2.844815 -3.41132,3.420132 -0.56244,0.192596 -0.84678,0.235455 -1.56984,0.236623 -2.38827,0.0038 -4.34118,-1.42238 -5.05709,-3.693287 l -0.24088,-0.764035 -2.33993,0.02831 -2.33993,0.02832 -0.51159,0.259217 c -0.5978,0.3029 -1.13923,0.855823 -1.41321,1.443223 l -0.19439,0.416746 -0.0232,15.695228 -0.0232,15.695229 h 3.75391 3.75392 z m -3.91743,-7.640297 -0.23266,-0.183009 v -2.632793 c 0,-2.460225 0.0114,-2.646456 0.16873,-2.84125 l 0.16873,-0.208454 3.26644,-0.02516 3.26646,-0.02516 0.25133,0.216149 0.25133,0.216151 v 2.620116 2.620116 l -0.24776,0.213147 -0.24774,0.213148 h -3.20609 c -3.10983,0 -3.2131,-0.0055 -3.43877,-0.183006 z m 5.77171,-2.863325 v -1.721839 h -2.33993 -2.33994 v 1.721839 1.721838 h 2.33994 2.33993 z m 4.15458,2.922035 c -0.11889,-0.06681 -0.24527,-0.195306 -0.28076,-0.285557 -0.0787,-0.200064 -0.0991,-5.080847 -0.0221,-5.281506 0.14306,-0.3728 0.40256,-0.401303 3.65373,-0.401303 3.25117,0 3.51066,0.0285 3.65372,0.401303 0.0301,0.07862 0.0548,1.287593 0.0548,2.686618 0,2.372497 -0.0115,2.557709 -0.16873,2.752136 l -0.16873,0.208456 -3.25287,0.02066 c -2.62638,0.01667 -3.29453,-0.0027 -3.46913,-0.100801 z m 5.69082,-2.922035 v -1.67769 h -2.33994 -2.33994 l -0.0242,1.586422 c -0.0132,0.872533 -0.004,1.638088 0.02,1.701235 0.0349,0.09102 0.52472,0.109936 2.36412,0.09126 l 2.32007,-0.02356 z m -15.46871,-5.517695 c -0.10614,-0.04366 -0.23525,-0.158458 -0.28698,-0.255133 -0.0604,-0.112976 -0.0941,-1.10618 -0.0941,-2.780006 v -2.60423 l 0.23266,-0.183007 c 0.22553,-0.177404 0.32947,-0.183008 3.39379,-0.183008 1.79696,0 3.25694,0.03644 3.38317,0.08442 0.36932,0.140415 0.42087,0.560942 0.39069,3.187099 -0.0268,2.336008 -0.0307,2.37834 -0.22833,2.576014 l -0.20104,0.200978 -3.19849,0.01811 c -1.75918,0.01 -3.28531,-0.0176 -3.3914,-0.06123 z m 5.60314,-3.000083 0.0241,-1.68081 h -2.34184 -2.34185 v 1.662975 c 0,0.914635 0.0166,1.679529 0.0368,1.699763 0.0203,0.02023 1.06327,0.02826 2.31787,0.01784 l 2.28107,-0.01895 z m 4.20239,2.984087 c -0.35513,-0.171958 -0.38534,-0.410276 -0.38534,-3.039524 v -2.516394 l 0.21673,-0.216734 0.21673,-0.216736 h 3.27512 3.27511 l 0.21673,0.216736 0.21673,0.216734 -0.002,2.586773 c -0.002,2.717161 -0.007,2.755277 -0.41081,2.969696 -0.25258,0.134528 -6.34027,0.13402 -6.61819,-5.28e-4 z m 5.70732,-2.996653 v -1.668244 h -2.38408 -2.38409 v 1.676201 1.676198 l 2.27372,0.02357 c 1.25054,0.01296 2.32337,0.0094 2.38407,-0.0079 0.0833,-0.02379 0.11035,-0.440847 0.11035,-1.699764 z m -4.22493,19.766453 c 0.0141,-4.914202 0.0141,-4.987444 -0.002,-5.165521 -0.007,-0.08601 -0.69305,-0.110371 -3.10097,-0.110371 h -3.09049 v 4.988922 4.988921 h 3.09049 3.09047 z m 11.30778,0.38231 0.0253,-4.319637 0.21406,-0.227787 0.21406,-0.227787 h 1.74419 1.74419 l 0.183,0.232657 c 0.17948,0.228163 0.18302,0.315992 0.18302,4.547424 v 4.314761 h 0.57395 0.57394 v -8.503235 c 0,-6.495898 -0.025,-8.528253 -0.106,-8.609197 -0.15183,-0.151837 -6.1704,-0.151837 -6.32224,0 -0.081,0.08094 -0.106,2.113299 -0.106,8.609197 v 8.503235 h 0.5266 0.52662 z m 2.98329,0.43446 V 92.69028 h -0.79469 -0.79471 v 3.885179 3.885171 h 0.79471 0.79469 z M 39.697134,69.82334 c 1.35985,-0.46543 2.39368,-1.712761 2.61897,-3.15983 0.39769,-2.554487 -1.95655,-4.893861 -4.48848,-4.460157 -2.42395,0.415203 -3.90849,2.838162 -3.15234,5.144983 0.67232,2.051009 2.96266,3.179798 5.02185,2.475004 z m -1.68504,-0.657466 c -0.14973,-0.109247 -0.17697,-0.268291 -0.21554,-1.258267 l -0.0442,-1.133217 -1.12232,-0.04415 c -0.9893,-0.03892 -1.13809,-0.06508 -1.25546,-0.220748 -0.0732,-0.09712 -0.13442,-0.262754 -0.13596,-0.368052 -0.009,-0.583995 0.31768,-0.735691 1.5822,-0.735691 h 0.97569 v -1.098737 c 0,-1.035306 0.0114,-1.106673 0.19624,-1.236193 0.28114,-0.196919 0.7146,-0.174002 0.91589,0.04841 0.14513,0.160387 0.1682,0.326889 0.1682,1.214117 v 1.028239 l 1.08963,0.04415 c 1.01172,0.041 1.10169,0.05906 1.25828,0.252604 0.19938,0.246473 0.21823,0.616935 0.0435,0.856337 -0.1092,0.149692 -0.26828,0.176991 -1.25595,0.21555 l -1.13088,0.04415 0.0266,0.804235 c 0.03,0.909979 -0.0907,1.49046 -0.33742,1.622498 -0.2363,0.126462 -0.55736,0.111546 -0.75856,-0.03525 z"
       id="path8846" />
  </g>
</svg>
