<?xml version="1.0" encoding="UTF-8" standalone="no"?>
<!-- Created with Inkscape (http://www.inkscape.org/) -->

<svg
   width="47.380234mm"
   height="39.401722mm"
   viewBox="0 0 47.380234 39.401722"
   version="1.1"
   id="svg5"
   inkscape:version="1.1.1 (3bf5ae0d25, 2021-09-20)"
   sodipodi:docname="house.svg"
   xmlns:inkscape="http://www.inkscape.org/namespaces/inkscape"
   xmlns:sodipodi="http://sodipodi.sourceforge.net/DTD/sodipodi-0.dtd"
   xmlns:xlink="http://www.w3.org/1999/xlink"
   xmlns="http://www.w3.org/2000/svg"
   xmlns:svg="http://www.w3.org/2000/svg">
  <sodipodi:namedview
     id="namedview7"
     pagecolor="#505050"
     bordercolor="#eeeeee"
     borderopacity="1"
     inkscape:pageshadow="0"
     inkscape:pageopacity="0"
     inkscape:pagecheckerboard="0"
     inkscape:document-units="mm"
     showgrid="false"
     inkscape:zoom="0.80378836"
     inkscape:cx="177.90753"
     inkscape:cy="67.181864"
     inkscape:window-width="1920"
     inkscape:window-height="1017"
     inkscape:window-x="-8"
     inkscape:window-y="-8"
     inkscape:window-maximized="1"
     inkscape:current-layer="layer1"
     fit-margin-top="0"
     fit-margin-left="0"
     fit-margin-right="0"
     fit-margin-bottom="0" />
  <defs
     id="defs2">
    <linearGradient
       inkscape:collect="always"
       xlink:href="#linearGradient16834"
       id="linearGradient26602"
       gradientUnits="userSpaceOnUse"
       x1="33.284485"
       y1="137.79311"
       x2="83.793106"
       y2="138.95689"
       gradientTransform="translate(-12.852805,-31.717346)" />
    <linearGradient
       inkscape:collect="always"
       id="linearGradient16834">
      <stop
         style="stop-color:#00deff;stop-opacity:1"
         offset="0"
         id="stop16830" />
      <stop
         style="stop-color:#0081fc;stop-opacity:0.98823529"
         offset="0.26966047"
         id="stop20864" />
      <stop
         style="stop-color:#00f5fb;stop-opacity:0.98431373"
         offset="0.63059157"
         id="stop21378" />
      <stop
         style="stop-color:#0084fc;stop-opacity:0.98823529"
         offset="1"
         id="stop16832" />
    </linearGradient>
  </defs>
  <g
     inkscape:label="Layer 1"
     inkscape:groupmode="layer"
     id="layer1"
     transform="translate(-22.367201,-85.510727)">
    <path
       style="fill:url(#linearGradient26602);fill-opacity:1;stroke-width:0.21079"
       d="m 22.451361,124.48069 c -0.18595,-0.58586 0.24295,-1.04383 0.97757,-1.04383 h 0.60656 v -3.88637 -3.88637 l -0.72725,0.11802 c -0.92041,0.14936 -0.99968,-0.10851 -0.9153,-2.97776 l 0.0616,-2.09547 5.26976,-4.16685 c 5.25241,-4.15313 6.00114,-4.60758 7.11278,-4.31714 0.26162,0.0684 2.15935,1.45267 4.21719,3.07624 l 3.74153,2.95197 v -3.6802 -3.68019 l -0.50021,0.19018 c -0.8359,0.3178 -0.97532,-0.0713 -0.97532,-2.722317 v -2.43739 l 1.58092,-1.23834 1.58093,-1.23833 v -2.77446 c 0,-1.87686 0.0818,-2.85629 0.25295,-3.02741 0.29891,-0.2989 3.70114,-0.34543 4.1571,-0.0568 0.16479,0.1043 0.3545,0.59242 0.42158,1.08472 l 0.12194,0.89507 2.1079,-1.6755 c 1.159351,-0.92153 2.34244,-1.83795 2.62909,-2.0365 0.68622,-0.47532 1.85378,-0.45725 2.64067,0.0409 0.3478,0.22017 3.38318,2.57119 6.74529,5.22449 l 6.11291,4.82418 0.0594,2.34141 c 0.0487,1.921187 -0.001,2.401997 -0.27812,2.678937 -0.25029,0.25029 -0.43913,0.28315 -0.73061,0.12715 -0.2162,-0.1157 -0.44675,-0.21037 -0.51234,-0.21037 -0.0656,0 -0.11925,5.07478 -0.11925,11.27728 v 11.27728 h 0.60656 c 0.73462,0 1.16352,0.45797 0.97758,1.04383 -0.137009,0.43166 -0.1388,0.4317 -23.61172,0.4317 -23.47293,0 -23.47471,-4e-5 -23.61172,-0.4317 z m 6.43554,-5.62852 c 0.002,-2.52158 0.0796,-4.70502 0.17294,-4.85208 0.13105,-0.20646 1.31907,-0.2545 5.21383,-0.21079 l 5.044111,0.0566 0.0567,4.79548 0.0567,4.79548 h 1.68237 1.68236 v -4.59898 -4.59898 l -4.30814,-3.39334 -4.30814,-3.39334 -4.33219,3.40763 -4.3322,3.40763 -0.002,4.58469 -0.002,4.58469 h 1.68632 1.68632 l 0.003,-4.58469 z m 9.06074,3.74153 v -0.84317 h -3.79422 -3.79422 v 0.84317 0.84316 h 3.79422 3.79422 z m 9.9564,-4.79548 0.0561,-5.63864 2.8165,-0.059 c 1.89693,-0.0397 2.91205,0.0203 3.10916,0.1839 0.23588,0.19577 0.292651,1.30104 0.292651,5.69762 v 5.45474 h 6.21831 6.21832 l -0.002,-11.96235 -0.002,-11.962337 -4.15597,-3.26725 c -2.28584,-1.79699 -4.79146,-3.76494 -5.56805,-4.37322 l -1.41198,-1.10597 -5.5495,4.37853 -5.54949,4.37854 -0.0544,11.957027 -0.0544,11.95703 h 1.79002 1.79001 z m 9.02214,1.85827 c -0.122839,-0.22953 -0.2182,-1.80174 -0.2182,-3.59729 0,-1.79555 0.0954,-3.36777 0.2182,-3.59729 0.1989,-0.37165 0.46562,-0.40773 3.0143,-0.40773 1.89369,0 2.87773,0.0816 3.04904,0.25295 0.35503,0.35503 0.35503,7.14911 0,7.50413 -0.17131,0.17132 -1.15535,0.25295 -3.04904,0.25295 -2.54868,0 -2.8154,-0.0361 -3.0143,-0.40772 z m 4.79812,-2.38525 -0.0627,-1.31744 h -1.68633 -1.68632 l -0.0628,1.31744 -0.0628,1.31744 h 1.81183 1.81184 z m 0.005,-3.26725 c 0.0654,-0.46018 0.0137,-0.47427 -1.739019,-0.47427 -1.61111,0 -1.80638,0.0418 -1.80638,0.38644 0,0.6189 0.2068,0.68714 1.88764,0.6229 1.46726,-0.0561 1.59561,-0.0975 1.657759,-0.53507 z m -13.50523,-5.55012 c -0.328969,-0.19161 -0.368879,-0.61204 -0.368879,-3.8858 0,-3.41361 0.0286,-3.68623 0.40772,-3.88914 0.53005,-0.28368 4.978209,-0.28368 5.508259,0 0.37916,0.20292 0.40772,0.47556 0.40772,3.8922 0,3.41664 -0.0286,3.68928 -0.40772,3.8922 -0.52458,0.28075 -5.062129,0.27301 -5.5471,-0.009 z m 4.47929,-2.618 v -1.37013 h -1.68632 -1.68632 v 1.37013 1.37014 h 1.68632 1.68632 z m 0,-3.37264 c 0,-0.51819 -0.0281,-0.52698 -1.68632,-0.52698 -1.65822,0 -1.68632,0.009 -1.68632,0.52698 0,0.51819 0.0281,0.52697 1.68632,0.52697 1.65822,0 1.68632,-0.009 1.68632,-0.52697 z m 4.637391,6.07312 c -0.57423,-0.23394 -0.62589,-0.56265 -0.629151,-4.00286 -0.003,-2.82221 0.0539,-3.46741 0.328021,-3.74153 0.48429,-0.48429 5.38772,-0.48429 5.87201,0 0.27412,0.27412 0.33069,0.91932 0.32802,3.74153 -0.002,1.87566 -0.093,3.55257 -0.2027,3.72647 -0.15696,0.24879 -0.75159,0.32567 -2.78975,0.36069 -1.42465,0.0245 -2.73255,-0.0134 -2.90645,-0.0843 z m 4.38418,-2.76187 0.063,-1.32613 -1.7493,0.0614 -1.74931,0.0614 -0.0653,1.02717 c -0.10195,1.60344 -0.0665,1.63425 1.80113,1.56394 l 1.63682,-0.0616 z m 0.004,-3.25855 c -0.0634,-0.44671 -0.16538,-0.47428 -1.753681,-0.47428 -1.58829,0 -1.69023,0.0276 -1.75368,0.47428 -0.0654,0.46044 -0.0142,0.47427 1.75368,0.47427 1.76792,0 1.81908,-0.0138 1.753681,-0.47427 z m -9.02594,18.86373 c 0,-1.82891 -0.0468,-2.08641 -0.42158,-2.32048 -0.23187,-0.1448 -0.42158,-0.40396 -0.42158,-0.57589 0,-0.17194 0.18971,-0.43109 0.42158,-0.5759 0.3748,-0.23406 0.42158,-0.49157 0.42158,-2.32048 v -2.05719 h -1.686321 -1.68632 v 4.95357 4.95357 h 1.68632 1.686321 z m -14.75532,-2.05321 v -0.94856 h -3.79422 -3.79422 v 0.94856 0.94855 h 3.79422 3.79422 z m 0,-3.26725 v -0.84316 h -3.79422 -3.79422 v 0.84316 0.84316 h 3.79422 3.79422 z m -9.05736,-6.32438 c 2.64583,-2.0872 4.95498,-3.85031 5.13145,-3.91803 0.20777,-0.0797 1.79199,1.03781 4.49478,3.17067 l 4.17391,3.29379 0.066,-0.87542 c 0.0363,-0.48147 0.0208,-0.99316 -0.0344,-1.13707 -0.19856,-0.51742 -8.22172,-6.66588 -8.61615,-6.60289 -0.21387,0.0342 -2.61461,1.81217 -5.335,3.95115 l -4.94616,3.88904 v 1.01183 c 0,0.5565 0.0574,1.01183 0.12749,1.01183 0.0701,0 2.29226,-1.70771 4.93809,-3.7949 z m 20.36456,-15.950437 c 3.27787,-2.58848 6.08234,-4.70593 6.23217,-4.70543 0.14982,4.8e-4 3.02322,2.17803 6.38533,4.83898 3.3621,2.66094 6.18405,4.84222 6.27101,4.84727 0.087,0.005 0.15809,-0.44372 0.15809,-0.99729 v -1.00648 l -6.20774,-4.89564 c -3.41425,-2.69261 -6.38572,-4.89564 -6.60325,-4.89564 -0.21754,0 -3.1391,2.16388 -6.49238,4.80863 l -6.09686,4.80863 -0.0644,1.11317 c -0.0488,0.84368 -10e-4,1.07406 0.19693,0.95165 0.14374,-0.0888 2.94323,-2.27936 6.22109,-4.86785 z m -1.4412,-3.94149 0.0642,-0.97563 h -0.9601 -0.96011 v 1.71361 1.71362 l 0.89586,-0.73798 c 0.78728,-0.64854 0.90365,-0.85624 0.96011,-1.71362 z"
       id="path1114" />
  </g>
</svg>
