<?xml version="1.0" encoding="UTF-8" standalone="no"?>
<!-- Created with Inkscape (http://www.inkscape.org/) -->

<svg
   width="71.338593mm"
   height="100.686mm"
   viewBox="0 0 71.338593 100.686"
   version="1.1"
   id="svg5"
   inkscape:version="1.1.1 (3bf5ae0d25, 2021-09-20)"
   sodipodi:docname="indirizzo.svg"
   xmlns:inkscape="http://www.inkscape.org/namespaces/inkscape"
   xmlns:sodipodi="http://sodipodi.sourceforge.net/DTD/sodipodi-0.dtd"
   xmlns="http://www.w3.org/2000/svg"
   xmlns:svg="http://www.w3.org/2000/svg">
  <sodipodi:namedview
     id="namedview7"
     pagecolor="#505050"
     bordercolor="#eeeeee"
     borderopacity="1"
     inkscape:pageshadow="0"
     inkscape:pageopacity="0"
     inkscape:pagecheckerboard="0"
     inkscape:document-units="mm"
     showgrid="false"
     fit-margin-top="0"
     fit-margin-left="0"
     fit-margin-right="0"
     fit-margin-bottom="0"
     inkscape:zoom="1.1367284"
     inkscape:cx="117.00244"
     inkscape:cy="299.10399"
     inkscape:window-width="1920"
     inkscape:window-height="1017"
     inkscape:window-x="-8"
     inkscape:window-y="-8"
     inkscape:window-maximized="1"
     inkscape:current-layer="layer1" />
  <defs
     id="defs2" />
  <g
     inkscape:label="Layer 1"
     inkscape:groupmode="layer"
     id="layer1"
     transform="translate(-83.047238,-70.964995)">
    <path
       style="fill:#000000;stroke-width:0.617982"
       d="m 113.43431,171.56012 c -19.354098,-0.77694 -32.748828,-5.47748 -30.038738,-10.54133 1.38768,-2.59289 10.21179,-5.68497 18.966008,-6.64591 l 3.75884,-0.4126 1.95749,2.66178 c 2.24332,3.05044 2.38544,3.64648 0.87603,3.6739 -1.35465,0.0246 -3.2444,1.42105 -3.2444,2.39744 0,3.42533 20.52664,4.19705 24.98198,0.93923 1.1458,-0.83783 1.14751,-0.9035 0.0552,-2.11053 -0.62008,-0.68518 -1.6405,-1.24579 -2.2676,-1.24579 -1.51211,0 -1.46057,-0.23863 0.74345,-3.44204 2.16339,-3.1444 2.67141,-3.23858 9.85801,-1.82754 6.75232,1.32577 9.26601,2.10702 12.16414,3.78061 4.44819,2.56871 4.17612,5.08709 -0.84249,7.79841 -6.17174,3.33431 -22.63585,5.54971 -36.96788,4.97437 z m 1.70161,-13.60124 c -9.99751,-13.75254 -14.38783,-20.13228 -18.343008,-26.65495 -9.59488,-15.8234 -12.99369,-25.82124 -11.51065,-33.859368 3.22535,-17.481389 21.038968,-29.201869 39.413298,-25.931999 14.12307,2.51333 24.5321,12.40422 27.35275,25.991179 1.37227,6.610228 -1.02359,14.580218 -8.55976,28.474598 -5.18597,9.56133 -23.41635,36.15192 -24.78559,36.15192 -0.29404,0 -1.89922,-1.87712 -3.56704,-4.17138 z m 9.5083,-39.41904 c 1.06711,-0.43128 3.12783,-1.85402 4.57938,-3.16163 10.49624,-9.45543 3.65882,-26.933158 -10.53645,-26.933158 -15.51805,0 -21.564458,20.196758 -8.56561,28.611608 4.47632,2.89777 9.70214,3.43147 14.52268,1.48318 z"
       id="path854" />
  </g>
</svg>
